<?xml version="1.0" encoding="UTF-8" standalone="no"?>
<!-- Created with Inkscape (http://www.inkscape.org/) -->

<svg
   width="158.14149mm"
   height="128.45731mm"
   viewBox="0 0 158.14149 128.45731"
   version="1.1"
   id="svg5"
   xml:space="preserve"
   sodipodi:docname="tiny-tiger.svg"
   inkscape:version="1.3.2 (091e20e, 2023-11-25, custom)"
   xmlns:inkscape="http://www.inkscape.org/namespaces/inkscape"
   xmlns:sodipodi="http://sodipodi.sourceforge.net/DTD/sodipodi-0.dtd"
   xmlns="http://www.w3.org/2000/svg"
   xmlns:svg="http://www.w3.org/2000/svg"><sodipodi:namedview
     id="namedview7"
     pagecolor="#ffffff"
     bordercolor="#000000"
     borderopacity="0.25"
     inkscape:showpageshadow="2"
     inkscape:pageopacity="0.0"
     inkscape:pagecheckerboard="0"
     inkscape:deskcolor="#d1d1d1"
     inkscape:document-units="mm"
     showgrid="false"
     inkscape:zoom="0.70710678"
     inkscape:cx="270.11479"
     inkscape:cy="304.76302"
     inkscape:window-width="1920"
     inkscape:window-height="1009"
     inkscape:window-x="-8"
     inkscape:window-y="-8"
     inkscape:window-maximized="1"
     inkscape:current-layer="layer1" /><defs
     id="defs2"><clipPath
       clipPathUnits="userSpaceOnUse"
       id="clipPath44"><path
         id="path45"
         style="font-variation-settings:'wght' 650;fill:#ff8e4a;fill-opacity:1;stroke-width:0.238125;stroke-linecap:round;stroke-dasharray:1.90499, 0.476247, 0.238123, 0.476247;paint-order:stroke fill markers"
         inkscape:transform-center-x="-6.842144"
         inkscape:transform-center-y="-2.49647"
         d="m 76.496701,196.2477 c -5.05527,0 -10.450881,42.45168 -10.232967,58.68169 0.217913,16.23001 13.114581,38.54174 50.155596,38.55424 37.04101,-0.0125 50.15559,-21.06397 50.15559,-38.55424 0,-17.49027 -4.00813,-58.68169 -10.23296,-58.68169 -6.22483,0 -19.82569,13.83211 -29.09384,21.04523 -3.55552,-0.60726 -7.18657,-0.915 -10.82879,-0.91777 -3.64223,0.003 -7.27327,0.31051 -10.8288,0.91777 C 95.742603,211.00244 81.55197,196.2477 76.496701,196.2477 Z"
         sodipodi:nodetypes="zzczzcccz" /></clipPath></defs><g
     inkscape:label="Layer 1"
     inkscape:groupmode="layer"
     id="layer1"
     transform="translate(-38.918115,-172.62124)"><g
       id="g45"
       transform="matrix(1.2248786,0,0,1.2248786,-30.201219,-62.297705)"><path
         id="path2"
         style="font-variation-settings:'wght' 650;fill:#ffa36b;fill-opacity:1;stroke:#674665;stroke-width:2.5;stroke-linecap:round;stroke-dasharray:none;stroke-dashoffset:0;stroke-opacity:1;paint-order:stroke fill markers"
         inkscape:transform-center-x="-6.842144"
         inkscape:transform-center-y="-2.49647"
         d="m 76.4967,196.2477 c -5.055269,0 -10.45088,42.45168 -10.232967,58.68169 0.217913,16.23001 13.114582,38.54174 50.155597,38.55424 37.04101,-0.0125 50.15559,-21.06397 50.15559,-38.55424 0,-17.49027 -4.00813,-58.68169 -10.23296,-58.68169 -6.22483,0 -19.82569,13.83211 -29.09384,21.04523 -3.55552,-0.60726 -7.18657,-0.915 -10.82879,-0.91777 -3.64223,0.003 -7.27327,0.31051 -10.8288,0.91777 C 95.742604,211.00244 81.551969,196.2477 76.4967,196.2477 Z"
         sodipodi:nodetypes="zzczzcccz" /><g
         id="g25"
         transform="translate(-0.06854284)"><circle
           style="font-variation-settings:'wght' 650;fill:#674665;fill-opacity:1;stroke:none;stroke-width:8;stroke-linecap:round;stroke-dasharray:64, 15.9999, 7.99995, 15.9999;stroke-dashoffset:0;stroke-opacity:1;paint-order:stroke fill markers"
           id="circle12"
           cx="116.48467"
           cy="267.80853"
           r="4.3491492" /><g
           id="g14"
           transform="rotate(-35.798199,90.413591,255.74265)"><circle
             style="font-variation-settings:'wght' 650;fill:#674665;fill-opacity:1;stroke:none;stroke-width:7.99998;stroke-linecap:round;stroke-dasharray:63.9998, 15.9999, 7.99994, 15.9999;stroke-dashoffset:0;stroke-opacity:1;paint-order:stroke fill markers"
             id="path11"
             cx="90.413589"
             cy="255.74265"
             r="7.7167454" /><circle
             style="font-variation-settings:'wght' 650;fill:#ffffff;fill-opacity:1;stroke:none;stroke-width:8;stroke-linecap:round;stroke-dasharray:64, 15.9999, 7.99995, 15.9999;stroke-dashoffset:0;stroke-opacity:1;paint-order:stroke fill markers"
             id="circle13"
             cx="93.781189"
             cy="255.74265"
             r="4.3491492" /></g><g
           id="g16"
           transform="matrix(-0.81108221,-0.58493218,-0.58493218,0.81108221,365.48072,101.20015)"><circle
             style="font-variation-settings:'wght' 650;fill:#674665;fill-opacity:1;stroke:none;stroke-width:7.99998;stroke-linecap:round;stroke-dasharray:63.9998, 15.9999, 7.99994, 15.9999;stroke-dashoffset:0;stroke-opacity:1;paint-order:stroke fill markers"
             id="circle15"
             cx="90.413589"
             cy="255.74265"
             r="7.7167454" /><circle
             style="font-variation-settings:'wght' 650;fill:#ffffff;fill-opacity:1;stroke:none;stroke-width:8;stroke-linecap:round;stroke-dasharray:64, 15.9999, 7.99995, 15.9999;stroke-dashoffset:0;stroke-opacity:1;paint-order:stroke fill markers"
             id="circle16"
             cx="93.781189"
             cy="255.74265"
             r="4.3491492" /></g></g><g
         id="g33"
         clip-path="url(#clipPath44)"><g
           id="g26"><g
             id="g24"
             transform="translate(-0.00309282)"><path
               style="font-variation-settings:'wght' 650;fill:#674665;fill-opacity:1;stroke:#674665;stroke-width:8;stroke-linecap:round;stroke-dasharray:63.9999, 15.9999, 7.99993, 15.9999;stroke-dashoffset:0;stroke-opacity:1;paint-order:stroke fill markers"
               d="m 116.41923,215.22805 c 0,33.98326 0,33.98326 0,33.98326"
               id="path4" /><path
               style="font-variation-settings:'wght' 650;fill:#674665;fill-opacity:1;stroke:#674665;stroke-width:8;stroke-linecap:round;stroke-dasharray:63.9998, 15.9999, 7.99993, 15.9999;stroke-dashoffset:0;stroke-opacity:1;paint-order:stroke fill markers"
               d="m 128.72235,229.56509 c -24.60625,0 -24.60625,0 -24.60625,0"
               id="path5" /><path
               style="font-variation-settings:'wght' 650;fill:#674665;fill-opacity:1;stroke:#674665;stroke-width:8;stroke-linecap:round;stroke-dasharray:63.9998, 15.9999, 7.99993, 15.9999;stroke-dashoffset:0;stroke-opacity:1;paint-order:stroke fill markers"
               d="m 128.72235,242.17281 c -24.60625,0 -24.60625,0 -24.60625,0"
               id="path6" /></g><g
             id="g17"><path
               style="font-variation-settings:'wght' 650;fill:#674665;fill-opacity:1;stroke:#674665;stroke-width:7.99999;stroke-linecap:round;stroke-dasharray:64.0001, 15.9999, 7.99994, 15.9999;stroke-dashoffset:0;stroke-opacity:1;paint-order:stroke fill markers"
               d="m 84.795845,213.11561 c -14.350156,3.89196 -14.350156,3.89196 -14.350156,3.89196"
               id="path7" /><path
               style="font-variation-settings:'wght' 650;fill:#674665;fill-opacity:1;stroke:#674665;stroke-width:7.99999;stroke-linecap:round;stroke-dasharray:64.0001, 15.9999, 7.99994, 15.9999;stroke-dashoffset:0;stroke-opacity:1;paint-order:stroke fill markers"
               d="m 83.120468,225.00756 c -14.350156,3.89196 -14.350156,3.89196 -14.350156,3.89196"
               id="path8" /><path
               style="font-variation-settings:'wght' 650;fill:#674665;fill-opacity:1;stroke:#674665;stroke-width:7.99999;stroke-linecap:round;stroke-dasharray:64.0001, 15.9999, 7.99994, 15.9999;stroke-dashoffset:0;stroke-opacity:1;paint-order:stroke fill markers"
               d="M 76.940806,264.74977 C 66.639368,270.8673 66.639368,270.8673 66.639368,270.8673"
               id="path9" /><path
               style="font-variation-settings:'wght' 650;fill:#674665;fill-opacity:1;stroke:#674665;stroke-width:7.99999;stroke-linecap:round;stroke-dasharray:64.0001, 15.9999, 7.99994, 15.9999;stroke-dashoffset:0;stroke-opacity:1;paint-order:stroke fill markers"
               d="m 88.046712,276.94853 c -8.104878,8.82353 -8.104878,8.82353 -8.104878,8.82353"
               id="path10" /></g></g><g
           id="g32"
           transform="matrix(-1,0,0,1,232.83226,0)"><path
             style="font-variation-settings:'wght' 650;fill:#674665;fill-opacity:1;stroke:#674665;stroke-width:7.99999;stroke-linecap:round;stroke-dasharray:64.0001, 15.9999, 7.99994, 15.9999;stroke-dashoffset:0;stroke-opacity:1;paint-order:stroke fill markers"
             d="m 84.795845,213.11561 c -14.350156,3.89196 -14.350156,3.89196 -14.350156,3.89196"
             id="path29" /><path
             style="font-variation-settings:'wght' 650;fill:#674665;fill-opacity:1;stroke:#674665;stroke-width:7.99999;stroke-linecap:round;stroke-dasharray:64.0001, 15.9999, 7.99994, 15.9999;stroke-dashoffset:0;stroke-opacity:1;paint-order:stroke fill markers"
             d="m 83.120468,225.00756 c -14.350156,3.89196 -14.350156,3.89196 -14.350156,3.89196"
             id="path30" /><path
             style="font-variation-settings:'wght' 650;fill:#674665;fill-opacity:1;stroke:#674665;stroke-width:7.99999;stroke-linecap:round;stroke-dasharray:64.0001, 15.9999, 7.99994, 15.9999;stroke-dashoffset:0;stroke-opacity:1;paint-order:stroke fill markers"
             d="M 76.940806,264.74977 C 66.639368,270.8673 66.639368,270.8673 66.639368,270.8673"
             id="path31" /><path
             style="font-variation-settings:'wght' 650;fill:#674665;fill-opacity:1;stroke:#674665;stroke-width:7.99999;stroke-linecap:round;stroke-dasharray:64.0001, 15.9999, 7.99994, 15.9999;stroke-dashoffset:0;stroke-opacity:1;paint-order:stroke fill markers"
             d="m 88.046712,276.94853 c -8.104878,8.82353 -8.104878,8.82353 -8.104878,8.82353"
             id="path32" /></g></g><path
         style="fill:#ffa3bf;fill-opacity:1;stroke:#674665;stroke-width:1;stroke-dasharray:none;stroke-opacity:1"
         d="m 153.29771,223.02554 c 0,0 -13.17298,7.35914 -15.37394,1.35568 -2.20096,-6.00346 4.98419,-7.90839 8.7261,-10.09221 -1.49093,-1.20283 -8.99971,-10.31495 -5.26507,-13.93153 3.73464,-3.61658 9.69641,3.32455 12.00875,5.83753 2.14884,-5.74464 2.26501,-12.34574 8.22682,-11.96033 5.96181,0.38542 1.95233,14.64637 1.95233,14.64637 0,0 11.94544,-2.23761 12.79209,2.72423 0.84664,4.96184 -3.82042,7.43931 -10.60101,8.31743 l -1.93824,0.251 c 1.50699,1.60918 6.72928,11.38628 0.72578,13.41931 -6.0035,2.03302 -11.25361,-10.56748 -11.25361,-10.56748 z"
         id="path3"
         inkscape:export-filename="tiny-tiger.svg"
         inkscape:export-xdpi="96"
         inkscape:export-ydpi="96"
         sodipodi:nodetypes="czczczczsczc" /></g></g></svg>
